<svg width="15" height="15" viewBox="0 0 23 23" fill="none" xmlns="http://www.w3.org/2000/svg">
<path fill-rule="evenodd" clip-rule="evenodd" d="M11.4559 22.9569C17.7835 22.9569 22.9127 17.8277 22.9127 11.5001C22.9127 5.17245 17.7835 0.0432129 11.4559 0.0432129C5.12826 0.0432129 -0.000976562 5.17245 -0.000976562 11.5001C-0.000976562 17.8277 5.12826 22.9569 11.4559 22.9569ZM11.9943 7.4558C12.1555 7.29488 12.3739 7.2045 12.6016 7.2045C12.8293 7.2045 13.0477 7.29488 13.2088 7.4558L16.6458 10.8929C16.8067 11.054 16.8971 11.2724 16.8971 11.5001C16.8971 11.7278 16.8067 11.9462 16.6458 12.1073L13.2088 15.5443C13.1301 15.6288 13.0352 15.6965 12.9298 15.7434C12.8244 15.7904 12.7107 15.8156 12.5953 15.8177C12.4799 15.8197 12.3653 15.7985 12.2583 15.7553C12.1513 15.7121 12.0541 15.6477 11.9725 15.5661C11.8909 15.4845 11.8266 15.3874 11.7834 15.2804C11.7402 15.1734 11.719 15.0588 11.721 14.9434C11.723 14.828 11.7483 14.7142 11.7952 14.6088C11.8422 14.5034 11.9099 14.4086 11.9943 14.3299L13.9649 12.3593H6.87313C6.64524 12.3593 6.42669 12.2688 6.26554 12.1077C6.1044 11.9465 6.01387 11.728 6.01387 11.5001C6.01387 11.2722 6.1044 11.0536 6.26554 10.8925C6.42669 10.7313 6.64524 10.6408 6.87313 10.6408H13.9649L11.9943 8.67022C11.8334 8.50911 11.7431 8.29071 11.7431 8.06301C11.7431 7.8353 11.8334 7.61691 11.9943 7.4558Z" fill="white"/>
</svg>
